<svg width="22" height="24" viewBox="0 0 22 24" fill="none" xmlns="http://www.w3.org/2000/svg">
<mask id="mask0_103_94" style="mask-type:alpha" maskUnits="userSpaceOnUse" x="0" y="0" width="22" height="24">
<rect width="22" height="24" fill="#C4C4C4"/>
</mask>
<g mask="url(#mask0_103_94)">
<path d="M1.89087 20.7954C4.12779 18.8131 3.30779 16.8462 3.30779 16.8462L8.69241 18.3847C8.69241 18.3847 5.87472 21.247 2.21779 21.4539L1.89087 20.7954Z" fill="white"/>
<path d="M2.1539 21.4616C2.36632 21.4616 2.53852 21.2894 2.53852 21.077C2.53852 20.8646 2.36632 20.6924 2.1539 20.6924C1.94149 20.6924 1.76929 20.8646 1.76929 21.077C1.76929 21.2894 1.94149 21.4616 2.1539 21.4616Z" fill="white"/>
<path d="M11 3C5.47692 3 1 6.78846 1 11.4615C1 16.1346 5.47692 19.9231 11 19.9231C16.5231 19.9231 21 16.1346 21 11.4615C21 6.78846 16.5231 3 11 3ZM11.7692 16.0769H10.2308V10.6923H11.7692V16.0769ZM11 8.76923C10.3631 8.76923 9.84615 8.25231 9.84615 7.61538C9.84615 6.97846 10.3631 6.46154 11 6.46154C11.6369 6.46154 12.1538 6.97846 12.1538 7.61538C12.1538 8.25231 11.6369 8.76923 11 8.76923Z" fill="white"/>
</g>
</svg>
