<svg width="38" height="38" viewBox="0 0 38 38" fill="none" xmlns="http://www.w3.org/2000/svg">
<circle cx="18.9999" cy="18.9999" r="16.4667" fill="white"/>
<mask id="mask0_613_912" style="mask-type:alpha" maskUnits="userSpaceOnUse" x="0" y="0" width="38" height="38">
<circle cx="19" cy="19" r="19" fill="#D9D9D9"/>
</mask>
<g mask="url(#mask0_613_912)">
<path d="M-6.84312 -7.2317C-7.3552 -7.03046 -8.0593 -6.37938 -8.26413 -5.89404C-8.41776 -5.57442 -8.44336 -1.46672 -8.44336 18.4325C-8.44336 41.4924 -8.43056 42.3921 -8.20012 42.8538C-7.90568 43.4338 -7.3808 43.9073 -6.7535 44.1441C-6.33104 44.3098 -3.51462 44.3335 19.4264 44.3335C37.8612 44.3335 45.2736 44.298 45.6448 44.2033C46.3105 44.0257 47.1682 43.2326 47.3603 42.617C47.4627 42.2737 47.5011 35.4197 47.5011 18.3733C47.5011 -2.8399 47.4755 -5.4442 47.2963 -5.83485C47.0402 -6.4149 46.5281 -6.90025 45.9008 -7.17251C45.4016 -7.38559 44.4286 -7.39743 19.4649 -7.38559C-1.73515 -7.38559 -6.53587 -7.36192 -6.84312 -7.2317ZM25.6098 8.7019C30.0905 10.7735 30.2441 10.8682 30.6025 11.3891C31.7803 13.1055 30.5641 15.2127 28.375 15.2127C27.7605 15.2127 27.4277 15.0943 25.3665 14.1473C24.0864 13.5554 23.011 13.0819 22.9854 13.0819C22.9598 13.0819 22.9214 15.8637 22.8958 19.2612C22.8446 25.3576 22.8446 25.4641 22.5501 26.2809C21.6668 28.7669 19.7593 30.5307 17.0325 31.383C16.0339 31.7026 13.4223 31.7026 12.4238 31.383C10.1707 30.6727 8.40398 29.2877 7.46944 27.5239C6.80374 26.2454 6.61171 25.4878 6.61171 24.1501C6.61171 22.8243 6.80374 22.0549 7.44384 20.8237C8.42959 18.9534 10.1066 17.6276 12.4238 16.8936C12.8078 16.7752 13.7424 16.6924 15.2402 16.645C16.4942 16.6053 17.4956 15.5872 17.5147 14.3328L17.5446 12.3716C17.6214 7.70753 17.6086 7.74304 18.5047 7.08012C19.0808 6.65396 19.7849 6.44089 20.4506 6.51191C20.8219 6.54743 22.4605 7.24585 25.6098 8.7019Z" fill="black"/>
</g>
</svg>
