<svg width="25" height="25" viewBox="0 0 25 25" fill="none" xmlns="http://www.w3.org/2000/svg">
<mask id="mask0_223_355" style="mask-type:alpha" maskUnits="userSpaceOnUse" x="0" y="0" width="25" height="25">
<rect width="25" height="25" fill="#C4C4C4"/>
</mask>
<g mask="url(#mask0_223_355)">
<path fill-rule="evenodd" clip-rule="evenodd" d="M13 22C17.9706 22 22 17.9706 22 13C22 8.02944 17.9706 4 13 4C8.02944 4 4 8.02944 4 13C4 17.9706 8.02944 22 13 22ZM13.6209 8.1896C13.6209 7.8468 13.343 7.56891 13.0002 7.56891C12.6574 7.56891 12.3795 7.8468 12.3795 8.1896V13.931C12.3795 14.1208 12.4664 14.3001 12.6153 14.4179L15.9515 17.0558C16.2204 17.2684 16.6107 17.2228 16.8233 16.9539C17.0359 16.685 16.9903 16.2946 16.7214 16.082L13.6209 13.6305V8.1896Z" fill="white"/>
</g>
</svg>
