<svg width="22" height="24" viewBox="0 0 22 24" fill="none" xmlns="http://www.w3.org/2000/svg">
<mask id="mask0_103_93" style="mask-type:alpha" maskUnits="userSpaceOnUse" x="0" y="0" width="22" height="24">
<rect width="22" height="24" fill="#C4C4C4"/>
</mask>
<g mask="url(#mask0_103_93)">
<path d="M21.7236 5.08976C20.925 5.44475 20.0655 5.68419 19.1637 5.79135C20.0845 5.24014 20.7905 4.36701 21.1234 3.32544C20.2622 3.83652 19.3088 4.20738 18.2933 4.40758C17.4806 3.54151 16.3221 3 15.0402 3C12.5792 3 10.5838 4.9954 10.5838 7.4569C10.5838 7.80571 10.623 8.1457 10.6993 8.47246C6.99513 8.28637 3.71078 6.51234 1.51253 3.8158C1.12889 4.47373 0.909283 5.23925 0.909283 6.05681C0.909283 7.60286 1.69598 8.96723 2.89189 9.76627C2.16164 9.7429 1.47417 9.54225 0.873124 9.20844C0.872683 9.22696 0.872683 9.24592 0.872683 9.26488C0.872683 11.4239 2.40903 13.2248 4.44808 13.6349C4.07414 13.7363 3.68035 13.791 3.27377 13.791C2.98626 13.791 2.70712 13.7632 2.43504 13.7108C3.00258 15.4813 4.64828 16.7702 6.59826 16.8059C5.07294 18.0014 3.15162 18.714 1.06318 18.714C0.703791 18.714 0.348808 18.6929 0 18.6514C1.97291 19.9165 4.31535 20.6539 6.83197 20.6539C15.0301 20.6539 19.5126 13.8629 19.5126 7.97328C19.5126 7.78013 19.5086 7.58743 19.5002 7.39605C20.3707 6.76898 21.1265 5.98361 21.7236 5.08976Z" fill="white"/>
</g>
</svg>
