<svg width="18" height="18" viewBox="0 0 18 18" fill="none" xmlns="http://www.w3.org/2000/svg">
<path fill-rule="evenodd" clip-rule="evenodd" d="M11.4345 12.75C10.7393 15.5257 9.52425 17.25 9 18C8.47575 17.25 7.26 15.5265 6.5655 12.75H11.4345V12.75ZM17.1825 12.75C16.014 15.2933 13.695 17.1997 10.893 17.7997C11.8793 16.2487 12.5745 14.5283 12.9758 12.75H17.1825V12.75ZM0.8175 12.75H5.02425C5.4285 14.5395 6.12675 16.2585 7.107 17.7997C4.305 17.1997 1.986 15.2933 0.8175 12.75ZM11.73 11.25H6.27C6.0525 9.76125 6.0525 8.2395 6.27 6.75H11.7307C11.9467 8.2395 11.9468 9.76125 11.73 11.25V11.25ZM4.75575 11.25H0.28425C0.09825 10.5315 0 9.777 0 9C0 8.223 0.09825 7.46925 0.28425 6.75H4.75575C4.5585 8.241 4.5585 9.759 4.75575 11.25ZM17.7158 11.25H13.2435C13.4423 9.759 13.4423 8.241 13.2443 6.75H17.7158C17.901 7.46925 18 8.223 18 9C18 9.777 17.901 10.5315 17.7158 11.25ZM11.4345 5.25H6.5655C7.25925 2.4735 8.475 0.75 9 0C9.8955 1.281 10.833 2.84925 11.4345 5.25ZM5.0235 5.24925H0.81675C1.986 2.70675 4.305 0.80025 7.107 0.1995C6.17925 1.6545 5.4465 3.37725 5.0235 5.24925ZM17.1825 5.24925H12.9758C12.558 3.40275 11.841 1.68675 10.8922 0.1995C13.6942 0.80025 16.014 2.70675 17.1825 5.24925Z" fill="white"/>
</svg>
