<svg width="934" height="780" viewBox="0 0 934 780" fill="none" xmlns="http://www.w3.org/2000/svg">
<g clip-path="url(#clip0_82_45)">
<rect width="934" height="780" fill="black"/>
<g filter="url(#filter0_f_82_45)">
<path d="M216.07 209.832C267.948 93.945 403.528 42.9808 518.897 96.0003L675.537 167.987C790.906 221.006 842.376 357.932 790.498 473.819L718.361 634.962C666.483 750.849 530.903 801.814 415.534 748.794L258.894 676.808C143.525 623.788 92.0552 486.863 143.933 370.976L216.07 209.832Z" fill="url(#paint0_radial_82_45)"/>
</g>
<g style="mix-blend-mode:overlay" filter="url(#filter1_f_82_45)">
<path d="M297.592 702.173C186.609 710.592 89.9913 627.436 81.789 516.437L81.3382 510.338C73.1359 399.339 156.455 302.532 267.438 294.113V294.113C378.42 285.694 475.038 368.85 483.24 479.849L483.691 485.948C491.893 596.947 408.574 693.754 297.592 702.173V702.173Z" fill="url(#paint1_radial_82_45)"/>
</g>
<g style="mix-blend-mode:hue" filter="url(#filter2_f_82_45)">
<path d="M515.162 729.672C384.982 739.548 271.65 642.006 262.028 511.806L261.5 504.652C251.878 374.452 349.611 260.898 479.792 251.022V251.022C609.973 241.146 723.305 338.688 732.926 468.888L733.455 476.043C743.076 606.243 645.343 719.796 515.162 729.672V729.672Z" fill="url(#paint2_radial_82_45)"/>
</g>
<g style="mix-blend-mode:lighten" filter="url(#filter3_f_82_45)">
<rect width="545.744" height="552.277" rx="229.897" transform="matrix(0.998809 -0.0487938 0.0475325 0.99887 54.645 297.85)" fill="url(#paint3_radial_82_45)"/>
</g>
<g style="mix-blend-mode:lighten" filter="url(#filter4_f_82_45)">
<rect width="441.269" height="441.69" rx="220.635" transform="matrix(0.75781 -0.652475 0.642605 0.766198 75.5518 466.755)" fill="url(#paint4_radial_82_45)"/>
</g>
<g style="mix-blend-mode:overlay" filter="url(#filter5_f_82_45)">
<path d="M333.467 161.85C373.962 76.6649 475.954 40.1995 560.72 81.5667V81.5667C645.485 122.934 680.924 226.469 640.429 311.654V311.654C599.934 396.839 497.942 433.305 413.177 391.938V391.938C328.412 350.57 292.972 247.036 333.467 161.85V161.85Z" fill="url(#paint5_radial_82_45)"/>
</g>
<g style="mix-blend-mode:lighten" filter="url(#filter6_f_82_45)">
<path d="M367.158 150.588C449.701 138.83 525.905 196.247 537.364 278.832L537.979 283.26C549.438 365.845 491.813 442.325 409.27 454.084V454.084C326.727 465.842 250.523 408.425 239.063 325.84L238.449 321.412C226.99 238.826 284.614 162.346 367.158 150.588V150.588Z" fill="url(#paint6_radial_82_45)"/>
</g>
</g>
<defs>
<filter id="filter0_f_82_45" x="6.28745" y="-42.4147" width="921.856" height="929.624" filterUnits="userSpaceOnUse" color-interpolation-filters="sRGB">
<feFlood flood-opacity="0" result="BackgroundImageFix"/>
<feBlend mode="normal" in="SourceGraphic" in2="BackgroundImageFix" result="shape"/>
<feGaussianBlur stdDeviation="58.7205" result="effect1_foregroundBlur_82_45"/>
</filter>
<filter id="filter1_f_82_45" x="-34.1676" y="178.577" width="633.364" height="639.131" filterUnits="userSpaceOnUse" color-interpolation-filters="sRGB">
<feFlood flood-opacity="0" result="BackgroundImageFix"/>
<feBlend mode="normal" in="SourceGraphic" in2="BackgroundImageFix" result="shape"/>
<feGaussianBlur stdDeviation="57.4743" result="effect1_foregroundBlur_82_45"/>
</filter>
<filter id="filter2_f_82_45" x="147.006" y="136.494" width="700.942" height="707.707" filterUnits="userSpaceOnUse" color-interpolation-filters="sRGB">
<feFlood flood-opacity="0" result="BackgroundImageFix"/>
<feBlend mode="normal" in="SourceGraphic" in2="BackgroundImageFix" result="shape"/>
<feGaussianBlur stdDeviation="56.9199" result="effect1_foregroundBlur_82_45"/>
</filter>
<filter id="filter3_f_82_45" x="-45.9049" y="170.947" width="772.444" height="778.83" filterUnits="userSpaceOnUse" color-interpolation-filters="sRGB">
<feFlood flood-opacity="0" result="BackgroundImageFix"/>
<feBlend mode="normal" in="SourceGraphic" in2="BackgroundImageFix" result="shape"/>
<feGaussianBlur stdDeviation="55.6064" result="effect1_foregroundBlur_82_45"/>
</filter>
<filter id="filter4_f_82_45" x="54.1729" y="158.657" width="660.988" height="666.702" filterUnits="userSpaceOnUse" color-interpolation-filters="sRGB">
<feFlood flood-opacity="0" result="BackgroundImageFix"/>
<feBlend mode="normal" in="SourceGraphic" in2="BackgroundImageFix" result="shape"/>
<feGaussianBlur stdDeviation="55.6064" result="effect1_foregroundBlur_82_45"/>
</filter>
<filter id="filter5_f_82_45" x="219.753" y="-32.4885" width="534.39" height="538.481" filterUnits="userSpaceOnUse" color-interpolation-filters="sRGB">
<feFlood flood-opacity="0" result="BackgroundImageFix"/>
<feBlend mode="normal" in="SourceGraphic" in2="BackgroundImageFix" result="shape"/>
<feGaussianBlur stdDeviation="48.4869" result="effect1_foregroundBlur_82_45"/>
</filter>
<filter id="filter6_f_82_45" x="124.736" y="36.7997" width="526.956" height="531.072" filterUnits="userSpaceOnUse" color-interpolation-filters="sRGB">
<feFlood flood-opacity="0" result="BackgroundImageFix"/>
<feBlend mode="normal" in="SourceGraphic" in2="BackgroundImageFix" result="shape"/>
<feGaussianBlur stdDeviation="56.1306" result="effect1_foregroundBlur_82_45"/>
</filter>
<radialGradient id="paint0_radial_82_45" cx="0" cy="0" r="1" gradientUnits="userSpaceOnUse" gradientTransform="translate(457.4 308.126) rotate(106.541) scale(422.145 418.408)">
<stop stop-color="#4BD4FF"/>
<stop offset="1" stop-color="#D04BFF" stop-opacity="0"/>
</radialGradient>
<radialGradient id="paint1_radial_82_45" cx="0" cy="0" r="1" gradientUnits="userSpaceOnUse" gradientTransform="translate(316.665 576.869) rotate(-29.3957) scale(191.45 193.17)">
<stop stop-color="#1B07FF"/>
<stop offset="1" stop-color="#FF9898"/>
</radialGradient>
<radialGradient id="paint2_radial_82_45" cx="0" cy="0" r="1" gradientUnits="userSpaceOnUse" gradientTransform="translate(537.535 582.692) rotate(-29.3957) scale(224.568 226.586)">
<stop stop-color="#C7BEFF"/>
<stop offset="1" stop-color="#9BFFAB"/>
</radialGradient>
<radialGradient id="paint3_radial_82_45" cx="0" cy="0" r="1" gradientUnits="userSpaceOnUse" gradientTransform="translate(381.891 152.391) rotate(83.2637) scale(259.513 300.437)">
<stop offset="0.447917" stop-color="#FF4D4D"/>
<stop offset="1" stop-color="#FF0000" stop-opacity="0"/>
</radialGradient>
<radialGradient id="paint4_radial_82_45" cx="0" cy="0" r="1" gradientUnits="userSpaceOnUse" gradientTransform="translate(308.783 121.877) rotate(75.4012) scale(165.31 136.153)">
<stop stop-color="#64FFFF"/>
<stop offset="0.572917" stop-color="#00FFC2" stop-opacity="0.58"/>
<stop offset="1" stop-color="#00FFC2" stop-opacity="0"/>
</radialGradient>
<radialGradient id="paint5_radial_82_45" cx="0" cy="0" r="1" gradientUnits="userSpaceOnUse" gradientTransform="translate(415.775 228.824) rotate(90.9127) scale(163.134 161.343)">
<stop offset="0.197917" stop-color="#FFD337"/>
<stop offset="1" stop-color="#FFFAE1" stop-opacity="0.42"/>
</radialGradient>
<radialGradient id="paint6_radial_82_45" cx="0" cy="0" r="1" gradientUnits="userSpaceOnUse" gradientTransform="translate(388.214 302.336) rotate(171.893) scale(150.966 153.2)">
<stop stop-color="#7E5EFF"/>
<stop offset="1" stop-color="#CD03FF" stop-opacity="0.6"/>
</radialGradient>
<clipPath id="clip0_82_45">
<rect width="934" height="780" fill="white"/>
</clipPath>
</defs>
</svg>
