<svg width="213" height="48" viewBox="0 0 213 48" fill="none" xmlns="http://www.w3.org/2000/svg">
<line x1="60.5" y1="8.71777" x2="60.5" y2="35.7178" stroke="white"/>
<rect width="47.4353" height="47.4353" rx="23.7176" fill="white"/>
<rect x="28.1648" y="30.3882" width="2.96471" height="9.63529" transform="rotate(90 28.1648 30.3882)" fill="black"/>
<path fill-rule="evenodd" clip-rule="evenodd" d="M4.44702 14.8235V30.3882H9.94045C14.2746 30.3882 17.7882 26.9039 17.7882 22.6058C17.7882 18.3078 14.2746 14.8235 9.94045 14.8235H4.44702ZM7.81034 18.1588L7.81034 27.0529H9.94045C12.4171 27.0529 14.4249 25.0619 14.4249 22.6058C14.4249 20.1498 12.4171 18.1588 9.94045 18.1588H7.81034Z" fill="black"/>
<path fill-rule="evenodd" clip-rule="evenodd" d="M30.3882 14.8235V30.3882H35.8816C40.2158 30.3882 43.7294 26.9039 43.7294 22.6058C43.7294 18.3078 40.2158 14.8235 35.8816 14.8235H30.3882ZM33.7515 18.1588L33.7515 27.0529H35.8816C38.3583 27.0529 40.366 25.0619 40.366 22.6058C40.366 20.1498 38.3583 18.1588 35.8816 18.1588H33.7515Z" fill="black"/>
<path d="M77.8228 27H75.1665L75.1831 24.9082H77.8228C78.4259 24.9082 78.9351 24.7699 79.3501 24.4932C79.7651 24.2109 80.0806 23.7959 80.2964 23.248C80.5122 22.6947 80.6201 22.0223 80.6201 21.231V20.6748C80.6201 20.0771 80.5592 19.5514 80.4375 19.0977C80.3158 18.6383 80.1359 18.2537 79.8979 17.9438C79.66 17.634 79.3639 17.4015 79.0098 17.2466C78.6611 17.0916 78.2599 17.0142 77.8062 17.0142H75.1167V14.9141H77.8062C78.6252 14.9141 79.3722 15.0524 80.0474 15.3291C80.728 15.6058 81.3146 16.0015 81.8071 16.5161C82.3052 17.0308 82.6898 17.6395 82.9609 18.3423C83.2321 19.0451 83.3677 19.8281 83.3677 20.6914V21.231C83.3677 22.0887 83.2321 22.8717 82.9609 23.5801C82.6898 24.2829 82.3052 24.8916 81.8071 25.4062C81.3146 25.9154 80.7308 26.3083 80.0557 26.585C79.3805 26.8617 78.6362 27 77.8228 27ZM76.7021 14.9141V27H73.9961V14.9141H76.7021ZM89.1201 27.166C88.4062 27.166 87.7671 27.0526 87.2026 26.8257C86.6382 26.5988 86.1595 26.2861 85.7666 25.8877C85.3792 25.4837 85.0832 25.0189 84.8784 24.4932C84.6737 23.9674 84.5713 23.4058 84.5713 22.8081V22.4927C84.5713 21.8231 84.6654 21.2061 84.8535 20.6416C85.0417 20.0771 85.3156 19.5874 85.6753 19.1724C86.0405 18.7518 86.4888 18.4281 87.02 18.2012C87.5513 17.9688 88.1572 17.8525 88.8379 17.8525C89.4743 17.8525 90.0415 17.9577 90.5396 18.168C91.0376 18.3727 91.4582 18.6688 91.8013 19.0562C92.1444 19.438 92.4045 19.9001 92.5815 20.4424C92.7642 20.9792 92.8555 21.5824 92.8555 22.252V23.3145H85.6172V21.646H90.3154V21.4468C90.3154 21.1313 90.2573 20.8547 90.1411 20.6167C90.0304 20.3787 89.8644 20.1961 89.6431 20.0688C89.4272 19.936 89.1533 19.8696 88.8213 19.8696C88.5059 19.8696 88.243 19.936 88.0327 20.0688C87.8224 20.2017 87.6536 20.3898 87.5264 20.6333C87.4046 20.8713 87.3161 21.1507 87.2607 21.4717C87.2054 21.7871 87.1777 22.1274 87.1777 22.4927V22.8081C87.1777 23.1567 87.2248 23.4749 87.3188 23.7627C87.4129 24.0505 87.5513 24.2967 87.7339 24.5015C87.9165 24.7062 88.1379 24.8667 88.3979 24.9829C88.658 25.0991 88.9541 25.1572 89.2861 25.1572C89.6956 25.1572 90.0858 25.0798 90.4565 24.9248C90.8273 24.7643 91.1483 24.5153 91.4194 24.1777L92.6313 25.564C92.4487 25.8296 92.1914 26.0869 91.8594 26.3359C91.5329 26.5794 91.14 26.7786 90.6807 26.9336C90.2214 27.0885 89.7012 27.166 89.1201 27.166ZM97.147 25.1655L99.0229 18.0186H101.746L98.7656 27H97.1304L97.147 25.1655ZM95.9351 18.0186L97.8027 25.1738L97.8193 27H96.1841L93.2041 18.0186H95.9351ZM106.817 27.166C106.104 27.166 105.464 27.0526 104.9 26.8257C104.335 26.5988 103.857 26.2861 103.464 25.8877C103.076 25.4837 102.78 25.0189 102.576 24.4932C102.371 23.9674 102.269 23.4058 102.269 22.8081V22.4927C102.269 21.8231 102.363 21.2061 102.551 20.6416C102.739 20.0771 103.013 19.5874 103.373 19.1724C103.738 18.7518 104.186 18.4281 104.717 18.2012C105.249 17.9688 105.854 17.8525 106.535 17.8525C107.172 17.8525 107.739 17.9577 108.237 18.168C108.735 18.3727 109.155 18.6688 109.499 19.0562C109.842 19.438 110.102 19.9001 110.279 20.4424C110.461 20.9792 110.553 21.5824 110.553 22.252V23.3145H103.314V21.646H108.013V21.4468C108.013 21.1313 107.955 20.8547 107.838 20.6167C107.728 20.3787 107.562 20.1961 107.34 20.0688C107.125 19.936 106.851 19.8696 106.519 19.8696C106.203 19.8696 105.94 19.936 105.73 20.0688C105.52 20.2017 105.351 20.3898 105.224 20.6333C105.102 20.8713 105.013 21.1507 104.958 21.4717C104.903 21.7871 104.875 22.1274 104.875 22.4927V22.8081C104.875 23.1567 104.922 23.4749 105.016 23.7627C105.11 24.0505 105.249 24.2967 105.431 24.5015C105.614 24.7062 105.835 24.8667 106.095 24.9829C106.355 25.0991 106.651 25.1572 106.983 25.1572C107.393 25.1572 107.783 25.0798 108.154 24.9248C108.525 24.7643 108.846 24.5153 109.117 24.1777L110.329 25.564C110.146 25.8296 109.889 26.0869 109.557 26.3359C109.23 26.5794 108.837 26.7786 108.378 26.9336C107.919 27.0885 107.398 27.166 106.817 27.166ZM114.545 14.25V27H111.947V14.25H114.545ZM116.04 22.6006V22.4263C116.04 21.7677 116.134 21.1618 116.322 20.6084C116.51 20.0495 116.787 19.5653 117.152 19.1558C117.517 18.7463 117.965 18.4281 118.497 18.2012C119.028 17.9688 119.637 17.8525 120.323 17.8525C121.02 17.8525 121.634 17.9688 122.166 18.2012C122.702 18.4281 123.153 18.7463 123.519 19.1558C123.884 19.5653 124.16 20.0495 124.349 20.6084C124.537 21.1618 124.631 21.7677 124.631 22.4263V22.6006C124.631 23.2536 124.537 23.8595 124.349 24.4185C124.16 24.9718 123.884 25.4561 123.519 25.8711C123.153 26.2806 122.705 26.5988 122.174 26.8257C121.643 27.0526 121.031 27.166 120.339 27.166C119.653 27.166 119.042 27.0526 118.505 26.8257C117.968 26.5988 117.517 26.2806 117.152 25.8711C116.787 25.4561 116.51 24.9718 116.322 24.4185C116.134 23.8595 116.04 23.2536 116.04 22.6006ZM118.638 22.4263V22.6006C118.638 22.9548 118.665 23.2868 118.721 23.5967C118.782 23.9066 118.878 24.1777 119.011 24.4102C119.144 24.6426 119.318 24.8252 119.534 24.958C119.756 25.0853 120.024 25.1489 120.339 25.1489C120.655 25.1489 120.92 25.0853 121.136 24.958C121.352 24.8252 121.526 24.6426 121.659 24.4102C121.792 24.1777 121.886 23.9066 121.941 23.5967C122.002 23.2868 122.033 22.9548 122.033 22.6006V22.4263C122.033 22.0776 122.002 21.7511 121.941 21.4468C121.886 21.1369 121.792 20.863 121.659 20.625C121.526 20.387 121.349 20.2017 121.128 20.0688C120.912 19.936 120.644 19.8696 120.323 19.8696C120.013 19.8696 119.75 19.936 119.534 20.0688C119.318 20.2017 119.144 20.387 119.011 20.625C118.878 20.863 118.782 21.1369 118.721 21.4468C118.665 21.7511 118.638 22.0776 118.638 22.4263ZM128.59 19.7451V30.4531H126V18.0186H128.416L128.59 19.7451ZM134.193 22.4097V22.584C134.193 23.237 134.119 23.8429 133.969 24.4019C133.82 24.9552 133.596 25.4395 133.297 25.8545C133.004 26.2695 132.641 26.5933 132.209 26.8257C131.778 27.0526 131.277 27.166 130.707 27.166C130.165 27.166 129.694 27.0526 129.296 26.8257C128.903 26.5933 128.571 26.2723 128.3 25.8628C128.034 25.4478 127.818 24.9746 127.652 24.4434C127.492 23.9066 127.367 23.3338 127.279 22.7251V22.3848C127.367 21.7373 127.495 21.1369 127.661 20.5835C127.827 20.0301 128.042 19.5514 128.308 19.1475C128.574 18.738 128.903 18.4198 129.296 18.1929C129.689 17.966 130.156 17.8525 130.699 17.8525C131.263 17.8525 131.764 17.9604 132.201 18.1763C132.638 18.3921 133.004 18.702 133.297 19.106C133.596 19.5044 133.82 19.9831 133.969 20.542C134.119 21.1009 134.193 21.7235 134.193 22.4097ZM131.595 22.584V22.4097C131.595 22.0444 131.568 21.7096 131.512 21.4053C131.457 21.0954 131.368 20.827 131.247 20.6001C131.125 20.3677 130.964 20.1878 130.765 20.0605C130.566 19.9333 130.322 19.8696 130.035 19.8696C129.725 19.8696 129.462 19.9194 129.246 20.019C129.03 20.1187 128.856 20.2653 128.723 20.459C128.59 20.6471 128.493 20.8796 128.433 21.1562C128.377 21.4329 128.347 21.7484 128.341 22.1025V23.0156C128.347 23.4307 128.405 23.8014 128.516 24.1279C128.632 24.4489 128.812 24.7007 129.055 24.8833C129.304 25.0604 129.636 25.1489 130.051 25.1489C130.345 25.1489 130.588 25.0853 130.782 24.958C130.981 24.8252 131.139 24.6398 131.255 24.4019C131.377 24.1639 131.462 23.89 131.512 23.5801C131.568 23.2702 131.595 22.9382 131.595 22.584ZM139.805 27.166C139.091 27.166 138.452 27.0526 137.887 26.8257C137.323 26.5988 136.844 26.2861 136.451 25.8877C136.064 25.4837 135.768 25.0189 135.563 24.4932C135.358 23.9674 135.256 23.4058 135.256 22.8081V22.4927C135.256 21.8231 135.35 21.2061 135.538 20.6416C135.726 20.0771 136 19.5874 136.36 19.1724C136.725 18.7518 137.173 18.4281 137.705 18.2012C138.236 17.9688 138.842 17.8525 139.522 17.8525C140.159 17.8525 140.726 17.9577 141.224 18.168C141.722 18.3727 142.143 18.6688 142.486 19.0562C142.829 19.438 143.089 19.9001 143.266 20.4424C143.449 20.9792 143.54 21.5824 143.54 22.252V23.3145H136.302V21.646H141V21.4468C141 21.1313 140.942 20.8547 140.826 20.6167C140.715 20.3787 140.549 20.1961 140.328 20.0688C140.112 19.936 139.838 19.8696 139.506 19.8696C139.19 19.8696 138.928 19.936 138.717 20.0688C138.507 20.2017 138.338 20.3898 138.211 20.6333C138.089 20.8713 138.001 21.1507 137.945 21.4717C137.89 21.7871 137.862 22.1274 137.862 22.4927V22.8081C137.862 23.1567 137.909 23.4749 138.003 23.7627C138.097 24.0505 138.236 24.2967 138.418 24.5015C138.601 24.7062 138.822 24.8667 139.083 24.9829C139.343 25.0991 139.639 25.1572 139.971 25.1572C140.38 25.1572 140.77 25.0798 141.141 24.9248C141.512 24.7643 141.833 24.5153 142.104 24.1777L143.316 25.564C143.133 25.8296 142.876 26.0869 142.544 26.3359C142.217 26.5794 141.825 26.7786 141.365 26.9336C140.906 27.0885 140.386 27.166 139.805 27.166ZM147.4 20.1104V27H144.81V18.0186H147.242L147.4 20.1104ZM150.081 17.9521L150.04 20.3677C149.929 20.3511 149.785 20.3372 149.608 20.3262C149.431 20.3096 149.279 20.3013 149.151 20.3013C148.819 20.3013 148.532 20.3428 148.288 20.4258C148.05 20.5033 147.851 20.6195 147.69 20.7744C147.535 20.9294 147.419 21.123 147.342 21.3555C147.264 21.5824 147.226 21.8452 147.226 22.144L146.736 21.9033C146.736 21.3112 146.794 20.7689 146.91 20.2764C147.026 19.7839 147.195 19.3577 147.417 18.998C147.638 18.6328 147.909 18.3506 148.23 18.1514C148.551 17.9521 148.916 17.8525 149.326 17.8525C149.458 17.8525 149.594 17.8608 149.732 17.8774C149.871 17.894 149.987 17.9189 150.081 17.9521ZM159.336 27H156.68L156.697 24.9082H159.336C159.94 24.9082 160.449 24.7699 160.864 24.4932C161.279 24.2109 161.594 23.7959 161.81 23.248C162.026 22.6947 162.134 22.0223 162.134 21.231V20.6748C162.134 20.0771 162.073 19.5514 161.951 19.0977C161.829 18.6383 161.65 18.2537 161.412 17.9438C161.174 17.634 160.878 17.4015 160.523 17.2466C160.175 17.0916 159.774 17.0142 159.32 17.0142H156.63V14.9141H159.32C160.139 14.9141 160.886 15.0524 161.561 15.3291C162.242 15.6058 162.828 16.0015 163.321 16.5161C163.819 17.0308 164.203 17.6395 164.475 18.3423C164.746 19.0451 164.881 19.8281 164.881 20.6914V21.231C164.881 22.0887 164.746 22.8717 164.475 23.5801C164.203 24.2829 163.819 24.8916 163.321 25.4062C162.828 25.9154 162.244 26.3083 161.569 26.585C160.894 26.8617 160.15 27 159.336 27ZM158.216 14.9141V27H155.51V14.9141H158.216ZM171.157 24.8584V21.0068C171.157 20.7357 171.115 20.5033 171.032 20.3096C170.949 20.1159 170.819 19.9637 170.642 19.853C170.465 19.7424 170.235 19.687 169.953 19.687C169.715 19.687 169.508 19.7285 169.331 19.8115C169.159 19.8945 169.026 20.0135 168.932 20.1685C168.844 20.3234 168.799 20.5143 168.799 20.7412H166.209C166.209 20.3372 166.301 19.9609 166.483 19.6123C166.666 19.2637 166.926 18.9565 167.264 18.6909C167.607 18.4253 168.016 18.2205 168.492 18.0767C168.968 17.9272 169.502 17.8525 170.094 17.8525C170.797 17.8525 171.422 17.9715 171.97 18.2095C172.524 18.4419 172.961 18.7933 173.282 19.2637C173.603 19.7285 173.763 20.3151 173.763 21.0234V24.7837C173.763 25.326 173.794 25.7521 173.854 26.062C173.921 26.3664 174.015 26.632 174.137 26.8589V27H171.522C171.4 26.7399 171.309 26.4189 171.248 26.0371C171.187 25.6497 171.157 25.2568 171.157 24.8584ZM171.48 21.5215L171.497 22.9492H170.21C169.923 22.9492 169.674 22.9852 169.463 23.0571C169.259 23.1291 169.093 23.2287 168.965 23.356C168.838 23.4777 168.744 23.6216 168.683 23.7876C168.628 23.9481 168.6 24.1252 168.6 24.3188C168.6 24.5015 168.644 24.6675 168.733 24.8169C168.821 24.9608 168.943 25.0742 169.098 25.1572C169.253 25.2402 169.433 25.2817 169.638 25.2817C169.975 25.2817 170.263 25.2153 170.501 25.0825C170.744 24.9497 170.933 24.7892 171.065 24.6011C171.198 24.4074 171.265 24.2275 171.265 24.0615L171.887 25.1406C171.788 25.362 171.666 25.5916 171.522 25.8296C171.378 26.062 171.195 26.2806 170.974 26.4854C170.753 26.6846 170.484 26.8478 170.169 26.9751C169.859 27.1024 169.486 27.166 169.048 27.166C168.484 27.166 167.972 27.0526 167.513 26.8257C167.053 26.5933 166.685 26.2751 166.409 25.8711C166.138 25.4671 166.002 25.0023 166.002 24.4766C166.002 24.0062 166.088 23.5884 166.259 23.2231C166.431 22.8579 166.688 22.548 167.031 22.2935C167.38 22.0389 167.817 21.848 168.343 21.7207C168.868 21.5879 169.483 21.5215 170.186 21.5215H171.48ZM175.091 22.6006V22.4263C175.091 21.7677 175.185 21.1618 175.374 20.6084C175.562 20.0495 175.838 19.5653 176.204 19.1558C176.569 18.7463 177.017 18.4281 177.548 18.2012C178.08 17.9688 178.688 17.8525 179.375 17.8525C180.072 17.8525 180.686 17.9688 181.217 18.2012C181.754 18.4281 182.205 18.7463 182.57 19.1558C182.936 19.5653 183.212 20.0495 183.4 20.6084C183.589 21.1618 183.683 21.7677 183.683 22.4263V22.6006C183.683 23.2536 183.589 23.8595 183.4 24.4185C183.212 24.9718 182.936 25.4561 182.57 25.8711C182.205 26.2806 181.757 26.5988 181.226 26.8257C180.694 27.0526 180.083 27.166 179.391 27.166C178.705 27.166 178.093 27.0526 177.557 26.8257C177.02 26.5988 176.569 26.2806 176.204 25.8711C175.838 25.4561 175.562 24.9718 175.374 24.4185C175.185 23.8595 175.091 23.2536 175.091 22.6006ZM177.689 22.4263V22.6006C177.689 22.9548 177.717 23.2868 177.772 23.5967C177.833 23.9066 177.93 24.1777 178.063 24.4102C178.196 24.6426 178.37 24.8252 178.586 24.958C178.807 25.0853 179.076 25.1489 179.391 25.1489C179.707 25.1489 179.972 25.0853 180.188 24.958C180.404 24.8252 180.578 24.6426 180.711 24.4102C180.844 24.1777 180.938 23.9066 180.993 23.5967C181.054 23.2868 181.084 22.9548 181.084 22.6006V22.4263C181.084 22.0776 181.054 21.7511 180.993 21.4468C180.938 21.1369 180.844 20.863 180.711 20.625C180.578 20.387 180.401 20.2017 180.18 20.0688C179.964 19.936 179.695 19.8696 179.375 19.8696C179.065 19.8696 178.802 19.936 178.586 20.0688C178.37 20.2017 178.196 20.387 178.063 20.625C177.93 20.863 177.833 21.1369 177.772 21.4468C177.717 21.7511 177.689 22.0776 177.689 22.4263ZM192.116 14.9141V27H189.41V14.9141H192.116ZM196.873 20.0107V22.1025H191.361V20.0107H196.873ZM197.404 14.9141V17.0142H191.361V14.9141H197.404ZM201.189 19.9028V27H198.599V18.0186H201.031L201.189 19.9028ZM200.857 22.1938L200.201 22.2104C200.201 21.5796 200.276 21.0013 200.425 20.4756C200.58 19.9443 200.804 19.4823 201.098 19.0894C201.391 18.6965 201.753 18.3921 202.185 18.1763C202.622 17.9604 203.126 17.8525 203.696 17.8525C204.094 17.8525 204.457 17.9134 204.783 18.0352C205.11 18.1514 205.389 18.3368 205.622 18.5913C205.86 18.8403 206.042 19.1668 206.169 19.5708C206.297 19.9692 206.36 20.4479 206.36 21.0068V27H203.771V21.3223C203.771 20.9238 203.721 20.6222 203.621 20.4175C203.527 20.2072 203.389 20.0633 203.206 19.9858C203.023 19.9084 202.805 19.8696 202.55 19.8696C202.274 19.8696 202.027 19.9305 201.812 20.0522C201.601 20.1685 201.424 20.3317 201.28 20.542C201.136 20.7523 201.028 20.9985 200.957 21.2808C200.89 21.563 200.857 21.8674 200.857 22.1938ZM206.095 22.061L205.273 22.1274C205.273 21.5187 205.345 20.9543 205.489 20.4341C205.633 19.9139 205.848 19.4629 206.136 19.0811C206.424 18.6937 206.781 18.3921 207.207 18.1763C207.639 17.9604 208.139 17.8525 208.709 17.8525C209.13 17.8525 209.512 17.9134 209.855 18.0352C210.204 18.1569 210.502 18.3534 210.751 18.6245C211.006 18.8957 211.202 19.2526 211.341 19.6953C211.479 20.1325 211.548 20.6693 211.548 21.3057V27H208.942V21.3057C208.942 20.9128 208.892 20.6139 208.792 20.4092C208.698 20.2044 208.56 20.0633 208.377 19.9858C208.2 19.9084 207.987 19.8696 207.738 19.8696C207.462 19.8696 207.221 19.9277 207.016 20.0439C206.811 20.1546 206.64 20.3096 206.501 20.5088C206.363 20.7025 206.261 20.9321 206.194 21.1978C206.128 21.4634 206.095 21.7511 206.095 22.061Z" fill="white"/>
</svg>
