<svg width="251" height="64" viewBox="0 0 251 64" fill="none" xmlns="http://www.w3.org/2000/svg">
<rect width="64" height="64" rx="32" fill="white"/>
<rect x="38" y="40.9999" width="4" height="13" transform="rotate(90 38 40.9999)" fill="black"/>
<path fill-rule="evenodd" clip-rule="evenodd" d="M6 20V41H13.4118C19.2595 41 24 36.299 24 30.5C24 24.701 19.2595 20 13.4118 20H6ZM10.5378 24.5L10.5378 36.5H13.4118C16.7533 36.5 19.4622 33.8137 19.4622 30.5C19.4622 27.1863 16.7533 24.5 13.4118 24.5H10.5378Z" fill="black"/>
<path fill-rule="evenodd" clip-rule="evenodd" d="M41.001 20V41H48.4127C54.2605 41 59.001 36.299 59.001 30.5C59.001 24.701 54.2605 20 48.4127 20H41.001ZM45.5388 24.5L45.5388 36.5H48.4127C51.7543 36.5 54.4632 33.8137 54.4632 30.5C54.4632 27.1863 51.7543 24.5 48.4127 24.5H45.5388Z" fill="black"/>
<path d="M84.9165 39H81.666L81.6865 36.6006H84.9165C85.7231 36.6006 86.4033 36.4194 86.957 36.0571C87.5107 35.688 87.9277 35.1514 88.208 34.4473C88.4951 33.7432 88.6387 32.8921 88.6387 31.894V31.166C88.6387 30.4004 88.5566 29.7271 88.3926 29.146C88.2354 28.5649 87.9995 28.0762 87.6851 27.6797C87.3706 27.2832 86.9844 26.9858 86.5264 26.7876C86.0684 26.5825 85.542 26.48 84.9473 26.48H81.6045V24.0703H84.9473C85.9453 24.0703 86.8579 24.2412 87.6851 24.583C88.519 24.918 89.2402 25.3999 89.8486 26.0288C90.457 26.6577 90.9253 27.4097 91.2534 28.2847C91.5884 29.1528 91.7559 30.1201 91.7559 31.1865V31.894C91.7559 32.9536 91.5884 33.9209 91.2534 34.7959C90.9253 35.6709 90.457 36.4229 89.8486 37.0518C89.2471 37.6738 88.5259 38.1558 87.6851 38.4976C86.8511 38.8325 85.9282 39 84.9165 39ZM83.4092 24.0703V39H80.333V24.0703H83.4092ZM98.9131 39.2051C98.0518 39.2051 97.2793 39.0684 96.5957 38.7949C95.9121 38.5146 95.3311 38.1284 94.8525 37.6362C94.3809 37.144 94.0186 36.5732 93.7656 35.9238C93.5127 35.2676 93.3862 34.5703 93.3862 33.832V33.4219C93.3862 32.5811 93.5059 31.812 93.7451 31.1147C93.9844 30.4175 94.3262 29.8125 94.7705 29.2998C95.2217 28.7871 95.7686 28.394 96.4111 28.1206C97.0537 27.8403 97.7783 27.7002 98.585 27.7002C99.3711 27.7002 100.068 27.8301 100.677 28.0898C101.285 28.3496 101.794 28.7188 102.205 29.1973C102.622 29.6758 102.936 30.25 103.148 30.9199C103.36 31.583 103.466 32.3213 103.466 33.1348V34.3652H94.6475V32.3965H100.564V32.1709C100.564 31.7607 100.489 31.395 100.338 31.0737C100.195 30.7456 99.9761 30.4858 99.6821 30.2944C99.3882 30.103 99.0122 30.0073 98.5542 30.0073C98.1646 30.0073 97.8296 30.0928 97.5493 30.2637C97.269 30.4346 97.04 30.6738 96.8623 30.9814C96.6914 31.2891 96.5615 31.6514 96.4727 32.0684C96.3906 32.4785 96.3496 32.9297 96.3496 33.4219V33.832C96.3496 34.2764 96.4111 34.6865 96.5342 35.0625C96.6641 35.4385 96.8452 35.7632 97.0776 36.0366C97.3169 36.3101 97.604 36.522 97.939 36.6724C98.2808 36.8228 98.667 36.8979 99.0977 36.8979C99.6309 36.8979 100.126 36.7954 100.584 36.5903C101.049 36.3784 101.449 36.0605 101.784 35.6367L103.22 37.1953C102.987 37.5303 102.669 37.8516 102.266 38.1592C101.87 38.4668 101.391 38.7197 100.831 38.918C100.27 39.1094 99.6309 39.2051 98.9131 39.2051ZM108.777 36.8467L111.238 27.9053H114.325L110.582 39H108.716L108.777 36.8467ZM107.085 27.9053L109.557 36.8569L109.608 39H107.731L103.989 27.9053H107.085ZM120.61 39.2051C119.749 39.2051 118.977 39.0684 118.293 38.7949C117.609 38.5146 117.028 38.1284 116.55 37.6362C116.078 37.144 115.716 36.5732 115.463 35.9238C115.21 35.2676 115.083 34.5703 115.083 33.832V33.4219C115.083 32.5811 115.203 31.812 115.442 31.1147C115.682 30.4175 116.023 29.8125 116.468 29.2998C116.919 28.7871 117.466 28.394 118.108 28.1206C118.751 27.8403 119.476 27.7002 120.282 27.7002C121.068 27.7002 121.766 27.8301 122.374 28.0898C122.982 28.3496 123.492 28.7188 123.902 29.1973C124.319 29.6758 124.633 30.25 124.845 30.9199C125.057 31.583 125.163 32.3213 125.163 33.1348V34.3652H116.345V32.3965H122.261V32.1709C122.261 31.7607 122.186 31.395 122.036 31.0737C121.892 30.7456 121.673 30.4858 121.379 30.2944C121.085 30.103 120.709 30.0073 120.251 30.0073C119.862 30.0073 119.527 30.0928 119.247 30.2637C118.966 30.4346 118.737 30.6738 118.56 30.9814C118.389 31.2891 118.259 31.6514 118.17 32.0684C118.088 32.4785 118.047 32.9297 118.047 33.4219V33.832C118.047 34.2764 118.108 34.6865 118.231 35.0625C118.361 35.4385 118.542 35.7632 118.775 36.0366C119.014 36.3101 119.301 36.522 119.636 36.6724C119.978 36.8228 120.364 36.8979 120.795 36.8979C121.328 36.8979 121.824 36.7954 122.282 36.5903C122.747 36.3784 123.146 36.0605 123.481 35.6367L124.917 37.1953C124.685 37.5303 124.367 37.8516 123.963 38.1592C123.567 38.4668 123.088 38.7197 122.528 38.918C121.967 39.1094 121.328 39.2051 120.61 39.2051ZM129.962 23.25V39H126.999V23.25H129.962ZM131.931 33.5654V33.3501C131.931 32.5366 132.047 31.7881 132.279 31.1045C132.512 30.4141 132.85 29.8159 133.294 29.3101C133.739 28.8042 134.286 28.4111 134.935 28.1309C135.584 27.8438 136.33 27.7002 137.17 27.7002C138.011 27.7002 138.76 27.8438 139.416 28.1309C140.072 28.4111 140.623 28.8042 141.067 29.3101C141.518 29.8159 141.86 30.4141 142.092 31.1045C142.325 31.7881 142.441 32.5366 142.441 33.3501V33.5654C142.441 34.3721 142.325 35.1206 142.092 35.811C141.86 36.4946 141.518 37.0928 141.067 37.6055C140.623 38.1113 140.076 38.5044 139.426 38.7847C138.777 39.0649 138.032 39.2051 137.191 39.2051C136.35 39.2051 135.602 39.0649 134.945 38.7847C134.296 38.5044 133.746 38.1113 133.294 37.6055C132.85 37.0928 132.512 36.4946 132.279 35.811C132.047 35.1206 131.931 34.3721 131.931 33.5654ZM134.884 33.3501V33.5654C134.884 34.0303 134.925 34.4644 135.007 34.8677C135.089 35.271 135.219 35.6265 135.396 35.9341C135.581 36.2349 135.82 36.4707 136.114 36.6416C136.408 36.8125 136.767 36.8979 137.191 36.8979C137.601 36.8979 137.953 36.8125 138.247 36.6416C138.541 36.4707 138.777 36.2349 138.955 35.9341C139.132 35.6265 139.262 35.271 139.344 34.8677C139.433 34.4644 139.478 34.0303 139.478 33.5654V33.3501C139.478 32.8989 139.433 32.4751 139.344 32.0786C139.262 31.6753 139.129 31.3198 138.944 31.0122C138.767 30.6978 138.531 30.4517 138.237 30.2739C137.943 30.0962 137.587 30.0073 137.17 30.0073C136.753 30.0073 136.398 30.0962 136.104 30.2739C135.817 30.4517 135.581 30.6978 135.396 31.0122C135.219 31.3198 135.089 31.6753 135.007 32.0786C134.925 32.4751 134.884 32.8989 134.884 33.3501ZM147.209 30.0381V43.2656H144.256V27.9053H146.994L147.209 30.0381ZM154.233 33.3296V33.5449C154.233 34.3516 154.137 35.1001 153.946 35.7905C153.761 36.481 153.488 37.0825 153.125 37.5952C152.763 38.1011 152.312 38.4976 151.772 38.7847C151.239 39.0649 150.624 39.2051 149.926 39.2051C149.25 39.2051 148.662 39.0684 148.163 38.7949C147.664 38.5215 147.243 38.1387 146.901 37.6465C146.566 37.1475 146.296 36.5698 146.091 35.9136C145.886 35.2573 145.729 34.5532 145.62 33.8013V33.2373C145.729 32.4307 145.886 31.6924 146.091 31.0225C146.296 30.3457 146.566 29.7612 146.901 29.269C147.243 28.77 147.66 28.3838 148.152 28.1104C148.651 27.8369 149.236 27.7002 149.906 27.7002C150.61 27.7002 151.229 27.8335 151.762 28.1001C152.302 28.3667 152.753 28.7495 153.115 29.2485C153.484 29.7476 153.761 30.3423 153.946 31.0327C154.137 31.7231 154.233 32.4888 154.233 33.3296ZM151.27 33.5449V33.3296C151.27 32.8579 151.229 32.4238 151.146 32.0273C151.071 31.624 150.948 31.272 150.777 30.9712C150.613 30.6704 150.395 30.438 150.121 30.2739C149.854 30.103 149.53 30.0176 149.147 30.0176C148.744 30.0176 148.398 30.0825 148.111 30.2124C147.831 30.3423 147.602 30.5303 147.424 30.7764C147.247 31.0225 147.113 31.3164 147.024 31.6582C146.936 32 146.881 32.3862 146.86 32.8169V34.2422C146.895 34.748 146.99 35.2026 147.147 35.606C147.305 36.0024 147.547 36.3169 147.875 36.5493C148.204 36.7817 148.634 36.8979 149.167 36.8979C149.557 36.8979 149.885 36.8125 150.152 36.6416C150.418 36.4639 150.634 36.2212 150.798 35.9136C150.969 35.606 151.088 35.2505 151.157 34.8472C151.232 34.4438 151.27 34.0098 151.27 33.5449ZM161.175 39.2051C160.313 39.2051 159.541 39.0684 158.857 38.7949C158.174 38.5146 157.593 38.1284 157.114 37.6362C156.643 37.144 156.28 36.5732 156.027 35.9238C155.774 35.2676 155.648 34.5703 155.648 33.832V33.4219C155.648 32.5811 155.768 31.812 156.007 31.1147C156.246 30.4175 156.588 29.8125 157.032 29.2998C157.483 28.7871 158.03 28.394 158.673 28.1206C159.315 27.8403 160.04 27.7002 160.847 27.7002C161.633 27.7002 162.33 27.8301 162.938 28.0898C163.547 28.3496 164.056 28.7188 164.466 29.1973C164.883 29.6758 165.198 30.25 165.41 30.9199C165.622 31.583 165.728 32.3213 165.728 33.1348V34.3652H156.909V32.3965H162.826V32.1709C162.826 31.7607 162.75 31.395 162.6 31.0737C162.457 30.7456 162.238 30.4858 161.944 30.2944C161.65 30.103 161.274 30.0073 160.816 30.0073C160.426 30.0073 160.091 30.0928 159.811 30.2637C159.531 30.4346 159.302 30.6738 159.124 30.9814C158.953 31.2891 158.823 31.6514 158.734 32.0684C158.652 32.4785 158.611 32.9297 158.611 33.4219V33.832C158.611 34.2764 158.673 34.6865 158.796 35.0625C158.926 35.4385 159.107 35.7632 159.339 36.0366C159.579 36.3101 159.866 36.522 160.201 36.6724C160.542 36.8228 160.929 36.8979 161.359 36.8979C161.893 36.8979 162.388 36.7954 162.846 36.5903C163.311 36.3784 163.711 36.0605 164.046 35.6367L165.481 37.1953C165.249 37.5303 164.931 37.8516 164.528 38.1592C164.131 38.4668 163.653 38.7197 163.092 38.918C162.532 39.1094 161.893 39.2051 161.175 39.2051ZM170.362 30.3252V39H167.409V27.9053H170.188L170.362 30.3252ZM173.705 27.8335L173.654 30.5713C173.51 30.5508 173.336 30.5337 173.131 30.52C172.933 30.4995 172.751 30.4893 172.587 30.4893C172.17 30.4893 171.808 30.5439 171.5 30.6533C171.2 30.7559 170.947 30.9097 170.742 31.1147C170.543 31.3198 170.393 31.5693 170.291 31.8633C170.195 32.1572 170.14 32.4922 170.126 32.8682L169.532 32.6836C169.532 31.9658 169.604 31.3062 169.747 30.7046C169.891 30.0962 170.099 29.5664 170.373 29.1152C170.653 28.6641 170.995 28.3154 171.398 28.0693C171.801 27.8232 172.263 27.7002 172.782 27.7002C172.946 27.7002 173.114 27.7139 173.285 27.7412C173.456 27.7617 173.596 27.7925 173.705 27.8335ZM185.097 39H181.847L181.867 36.6006H185.097C185.904 36.6006 186.584 36.4194 187.138 36.0571C187.691 35.688 188.108 35.1514 188.389 34.4473C188.676 33.7432 188.819 32.8921 188.819 31.894V31.166C188.819 30.4004 188.737 29.7271 188.573 29.146C188.416 28.5649 188.18 28.0762 187.866 27.6797C187.551 27.2832 187.165 26.9858 186.707 26.7876C186.249 26.5825 185.723 26.48 185.128 26.48H181.785V24.0703H185.128C186.126 24.0703 187.039 24.2412 187.866 24.583C188.7 24.918 189.421 25.3999 190.029 26.0288C190.638 26.6577 191.106 27.4097 191.434 28.2847C191.769 29.1528 191.937 30.1201 191.937 31.1865V31.894C191.937 32.9536 191.769 33.9209 191.434 34.7959C191.106 35.6709 190.638 36.4229 190.029 37.0518C189.428 37.6738 188.707 38.1558 187.866 38.4976C187.032 38.8325 186.109 39 185.097 39ZM183.59 24.0703V39H180.514V24.0703H183.59ZM199.976 36.498V31.5557C199.976 31.2002 199.917 30.896 199.801 30.6431C199.685 30.3833 199.504 30.1816 199.258 30.0381C199.019 29.8945 198.708 29.8228 198.325 29.8228C197.997 29.8228 197.713 29.8809 197.474 29.9971C197.234 30.1064 197.05 30.2671 196.92 30.479C196.79 30.6841 196.725 30.9268 196.725 31.207H193.772C193.772 30.7354 193.881 30.2876 194.1 29.8638C194.319 29.4399 194.637 29.0674 195.054 28.7461C195.471 28.418 195.966 28.1616 196.541 27.9771C197.122 27.7925 197.771 27.7002 198.489 27.7002C199.35 27.7002 200.116 27.8438 200.786 28.1309C201.456 28.418 201.982 28.8486 202.365 29.4229C202.754 29.9971 202.949 30.7148 202.949 31.5762V36.3237C202.949 36.9321 202.987 37.4312 203.062 37.8208C203.137 38.2036 203.247 38.5386 203.39 38.8257V39H200.406C200.263 38.6992 200.153 38.3232 200.078 37.8721C200.01 37.4141 199.976 36.9561 199.976 36.498ZM200.365 32.2427L200.386 33.9141H198.735C198.345 33.9141 198.007 33.9585 197.72 34.0474C197.433 34.1362 197.197 34.2627 197.012 34.4268C196.828 34.584 196.691 34.7686 196.602 34.9805C196.52 35.1924 196.479 35.4248 196.479 35.6777C196.479 35.9307 196.537 36.1597 196.653 36.3647C196.77 36.563 196.937 36.7202 197.156 36.8364C197.375 36.9458 197.631 37.0005 197.925 37.0005C198.369 37.0005 198.755 36.9116 199.083 36.7339C199.412 36.5562 199.665 36.3374 199.842 36.0776C200.027 35.8179 200.123 35.5718 200.129 35.3394L200.909 36.5903C200.799 36.8706 200.649 37.1611 200.458 37.4619C200.273 37.7627 200.037 38.0464 199.75 38.313C199.463 38.5728 199.118 38.7881 198.714 38.959C198.311 39.123 197.833 39.2051 197.279 39.2051C196.575 39.2051 195.936 39.0649 195.361 38.7847C194.794 38.4976 194.343 38.1045 194.008 37.6055C193.68 37.0996 193.516 36.5254 193.516 35.8828C193.516 35.3018 193.625 34.7856 193.844 34.3345C194.062 33.8833 194.384 33.5039 194.808 33.1963C195.238 32.8818 195.775 32.646 196.417 32.4888C197.06 32.3247 197.805 32.2427 198.653 32.2427H200.365ZM204.754 33.5654V33.3501C204.754 32.5366 204.87 31.7881 205.103 31.1045C205.335 30.4141 205.673 29.8159 206.118 29.3101C206.562 28.8042 207.109 28.4111 207.758 28.1309C208.408 27.8438 209.153 27.7002 209.994 27.7002C210.834 27.7002 211.583 27.8438 212.239 28.1309C212.896 28.4111 213.446 28.8042 213.89 29.3101C214.341 29.8159 214.683 30.4141 214.916 31.1045C215.148 31.7881 215.264 32.5366 215.264 33.3501V33.5654C215.264 34.3721 215.148 35.1206 214.916 35.811C214.683 36.4946 214.341 37.0928 213.89 37.6055C213.446 38.1113 212.899 38.5044 212.25 38.7847C211.6 39.0649 210.855 39.2051 210.014 39.2051C209.173 39.2051 208.425 39.0649 207.769 38.7847C207.119 38.5044 206.569 38.1113 206.118 37.6055C205.673 37.0928 205.335 36.4946 205.103 35.811C204.87 35.1206 204.754 34.3721 204.754 33.5654ZM207.707 33.3501V33.5654C207.707 34.0303 207.748 34.4644 207.83 34.8677C207.912 35.271 208.042 35.6265 208.22 35.9341C208.404 36.2349 208.644 36.4707 208.938 36.6416C209.231 36.8125 209.59 36.8979 210.014 36.8979C210.424 36.8979 210.776 36.8125 211.07 36.6416C211.364 36.4707 211.6 36.2349 211.778 35.9341C211.956 35.6265 212.085 35.271 212.167 34.8677C212.256 34.4644 212.301 34.0303 212.301 33.5654V33.3501C212.301 32.8989 212.256 32.4751 212.167 32.0786C212.085 31.6753 211.952 31.3198 211.768 31.0122C211.59 30.6978 211.354 30.4517 211.06 30.2739C210.766 30.0962 210.411 30.0073 209.994 30.0073C209.577 30.0073 209.221 30.0962 208.927 30.2739C208.64 30.4517 208.404 30.6978 208.22 31.0122C208.042 31.3198 207.912 31.6753 207.83 32.0786C207.748 32.4751 207.707 32.8989 207.707 33.3501ZM225.569 24.0703V39H222.493V24.0703H225.569ZM231.517 30.4482V32.8477H224.729V30.4482H231.517ZM232.234 24.0703V26.48H224.729V24.0703H232.234ZM236.787 30.2021V39H233.824V27.9053H236.603L236.787 30.2021ZM236.377 33.063H235.557C235.557 32.2905 235.649 31.5796 235.833 30.9302C236.025 30.2739 236.302 29.7065 236.664 29.228C237.033 28.7427 237.488 28.3667 238.028 28.1001C238.568 27.8335 239.193 27.7002 239.904 27.7002C240.396 27.7002 240.848 27.7754 241.258 27.9258C241.668 28.0693 242.02 28.2983 242.314 28.6128C242.615 28.9204 242.847 29.3237 243.011 29.8228C243.175 30.3149 243.257 30.9062 243.257 31.5967V39H240.304V31.9248C240.304 31.4189 240.236 31.0293 240.099 30.7559C239.962 30.4824 239.768 30.291 239.515 30.1816C239.269 30.0723 238.971 30.0176 238.623 30.0176C238.24 30.0176 237.905 30.0962 237.618 30.2534C237.337 30.4106 237.105 30.6294 236.92 30.9097C236.736 31.1831 236.599 31.5044 236.51 31.8735C236.421 32.2427 236.377 32.6392 236.377 33.063ZM242.98 32.7246L241.924 32.8579C241.924 32.1333 242.013 31.46 242.191 30.8379C242.375 30.2158 242.646 29.6689 243.001 29.1973C243.363 28.7256 243.811 28.3599 244.344 28.1001C244.877 27.8335 245.493 27.7002 246.19 27.7002C246.723 27.7002 247.208 27.7788 247.646 27.936C248.083 28.0864 248.456 28.3291 248.764 28.6641C249.078 28.9922 249.317 29.4229 249.481 29.9561C249.652 30.4893 249.738 31.1421 249.738 31.9146V39H246.774V31.9146C246.774 31.4019 246.706 31.0122 246.569 30.7456C246.439 30.4722 246.248 30.2842 245.995 30.1816C245.749 30.0723 245.455 30.0176 245.113 30.0176C244.758 30.0176 244.447 30.0894 244.18 30.2329C243.914 30.3696 243.691 30.561 243.514 30.8071C243.336 31.0532 243.203 31.3403 243.114 31.6685C243.025 31.9897 242.98 32.3418 242.98 32.7246Z" fill="white"/>
</svg>
