<svg width="202" height="28" viewBox="0 0 202 28" fill="none" xmlns="http://www.w3.org/2000/svg">
<path d="M1.3833 22H5.39258C6.05566 22 6.67773 21.918 7.25879 21.7539C7.84668 21.5898 8.3833 21.354 8.86865 21.0464C9.28564 20.7866 9.66846 20.4653 10.0171 20.0825C10.3657 19.6929 10.6699 19.269 10.9297 18.811C11.2031 18.2983 11.415 17.7344 11.5654 17.1191C11.7158 16.5039 11.791 15.8511 11.791 15.1606V13.9302C11.791 13.2124 11.709 12.5356 11.5449 11.8999C11.3877 11.2642 11.1621 10.6831 10.8682 10.1567C10.6152 9.72607 10.3179 9.32959 9.97607 8.96729C9.64111 8.59814 9.2583 8.28711 8.82764 8.03418C8.33545 7.72656 7.78857 7.49072 7.18701 7.32666C6.58545 7.15576 5.93945 7.07031 5.24902 7.07031H1.3833V22ZM4.28516 9.4082H5.24902C5.59766 9.4082 5.91895 9.44922 6.21289 9.53125C6.51367 9.60645 6.78711 9.71582 7.0332 9.85938C7.35449 10.0508 7.63477 10.2969 7.87402 10.5977C8.12012 10.8984 8.31836 11.2402 8.46875 11.623C8.5918 11.9443 8.68408 12.2998 8.74561 12.6895C8.81396 13.0723 8.84814 13.479 8.84814 13.9097V15.1606C8.84814 15.6187 8.81396 16.0459 8.74561 16.4424C8.68408 16.832 8.5918 17.1875 8.46875 17.5088C8.31836 17.8779 8.13721 18.2026 7.92529 18.4829C7.72021 18.7563 7.48779 18.9819 7.22803 19.1597C6.9751 19.3306 6.69482 19.4604 6.38721 19.5493C6.07959 19.6382 5.74805 19.6826 5.39258 19.6826H4.28516V9.4082ZM19.543 22.2051C20.6162 22.2051 21.5459 21.9966 22.332 21.5796C23.1182 21.1626 23.6924 20.6978 24.0547 20.1851L22.6294 18.647C22.3013 19.0708 21.874 19.3887 21.3477 19.6006C20.8213 19.8125 20.2778 19.9185 19.7173 19.9185C19.3208 19.9185 18.9551 19.8569 18.6201 19.7339C18.2852 19.6108 17.9878 19.4365 17.728 19.2109C17.4751 18.9922 17.2734 18.7495 17.123 18.4829C16.9727 18.2095 16.8496 17.8506 16.7539 17.4062V17.3755H24.2803V16.1655C24.2803 15.3521 24.1675 14.6104 23.9419 13.9404C23.7163 13.2637 23.3882 12.686 22.9575 12.2075C22.52 11.729 21.9868 11.3599 21.3579 11.1001C20.7358 10.8335 20.0249 10.7002 19.2251 10.7002C18.4526 10.7002 17.7383 10.8403 17.082 11.1206C16.4258 11.4009 15.8584 11.7939 15.3799 12.2998C14.9014 12.8057 14.5288 13.4106 14.2622 14.1147C13.9956 14.812 13.8623 15.5845 13.8623 16.4321V16.8423C13.8623 17.5874 13.9956 18.2881 14.2622 18.9443C14.5356 19.5938 14.9219 20.1577 15.4209 20.6362C15.9199 21.1216 16.5181 21.5044 17.2153 21.7847C17.9126 22.0649 18.6885 22.2051 19.543 22.2051ZM19.2046 13.0073C19.5669 13.0073 19.8848 13.0654 20.1582 13.1816C20.4385 13.291 20.6743 13.4414 20.8657 13.6328C21.0571 13.8311 21.2075 14.0635 21.3169 14.3301C21.4263 14.5967 21.481 14.8804 21.481 15.1812V15.4067H16.8052C16.8735 15.0444 16.9761 14.7163 17.1128 14.4224C17.2495 14.1284 17.4204 13.8755 17.6255 13.6636C17.8237 13.4517 18.0562 13.291 18.3228 13.1816C18.5894 13.0654 18.8833 13.0073 19.2046 13.0073ZM30.2993 22H32.9756L37.1899 10.9053H34.2163L31.7861 18.729L31.6323 19.5083L31.4785 18.729L29.0381 10.9053H26.0645L30.2993 22ZM44.7676 22.2051C45.8408 22.2051 46.7705 21.9966 47.5566 21.5796C48.3428 21.1626 48.917 20.6978 49.2793 20.1851L47.854 18.647C47.5259 19.0708 47.0986 19.3887 46.5723 19.6006C46.0459 19.8125 45.5024 19.9185 44.9419 19.9185C44.5454 19.9185 44.1797 19.8569 43.8447 19.7339C43.5098 19.6108 43.2124 19.4365 42.9526 19.2109C42.6997 18.9922 42.498 18.7495 42.3477 18.4829C42.1973 18.2095 42.0742 17.8506 41.9785 17.4062V17.3755H49.5049V16.1655C49.5049 15.3521 49.3921 14.6104 49.1665 13.9404C48.9409 13.2637 48.6128 12.686 48.1821 12.2075C47.7446 11.729 47.2114 11.3599 46.5825 11.1001C45.9604 10.8335 45.2495 10.7002 44.4497 10.7002C43.6772 10.7002 42.9629 10.8403 42.3066 11.1206C41.6504 11.4009 41.083 11.7939 40.6045 12.2998C40.126 12.8057 39.7534 13.4106 39.4868 14.1147C39.2202 14.812 39.0869 15.5845 39.0869 16.4321V16.8423C39.0869 17.5874 39.2202 18.2881 39.4868 18.9443C39.7603 19.5938 40.1465 20.1577 40.6455 20.6362C41.1445 21.1216 41.7427 21.5044 42.4399 21.7847C43.1372 22.0649 43.9131 22.2051 44.7676 22.2051ZM44.4292 13.0073C44.7915 13.0073 45.1094 13.0654 45.3828 13.1816C45.6631 13.291 45.8989 13.4414 46.0903 13.6328C46.2817 13.8311 46.4321 14.0635 46.5415 14.3301C46.6509 14.5967 46.7056 14.8804 46.7056 15.1812V15.4067H42.0298C42.0981 15.0444 42.2007 14.7163 42.3374 14.4224C42.4741 14.1284 42.645 13.8755 42.8501 13.6636C43.0483 13.4517 43.2808 13.291 43.5474 13.1816C43.814 13.0654 44.1079 13.0073 44.4292 13.0073ZM52.5913 6.25V8.57764H55.9136V19.6826H52.5913V22H61.9736V19.6826H58.7949V6.25H52.5913ZM64.2192 16.3501V16.5654C64.2192 17.3789 64.3354 18.1309 64.5679 18.8213C64.8003 19.5049 65.1421 20.0996 65.5933 20.6055C66.0376 21.1113 66.5845 21.5078 67.2339 21.7949C67.8901 22.0752 68.6353 22.2153 69.4692 22.2153C70.2964 22.2153 71.0347 22.0752 71.6841 21.7949C72.3335 21.5078 72.8804 21.1113 73.3247 20.6055C73.769 20.0996 74.1074 19.5049 74.3398 18.8213C74.5723 18.1309 74.6885 17.3789 74.6885 16.5654V16.3501C74.6885 15.5435 74.5723 14.7983 74.3398 14.1147C74.1074 13.4243 73.769 12.8262 73.3247 12.3203C72.8735 11.8145 72.3232 11.418 71.6738 11.1309C71.0244 10.8438 70.2827 10.7002 69.4487 10.7002C68.6147 10.7002 67.873 10.8438 67.2236 11.1309C66.5811 11.418 66.0376 11.8145 65.5933 12.3203C65.1421 12.8262 64.8003 13.4243 64.5679 14.1147C64.3354 14.7983 64.2192 15.5435 64.2192 16.3501ZM67.0698 16.5654V16.3501C67.0698 15.8989 67.1143 15.4717 67.2031 15.0684C67.292 14.665 67.4321 14.3096 67.6235 14.002C67.8149 13.6943 68.061 13.4517 68.3618 13.2739C68.6626 13.0962 69.0249 13.0073 69.4487 13.0073C69.8794 13.0073 70.2451 13.0962 70.5459 13.2739C70.8467 13.4517 71.0928 13.6943 71.2842 14.002C71.4688 14.3096 71.6055 14.665 71.6943 15.0684C71.7832 15.4717 71.8276 15.8989 71.8276 16.3501V16.5654C71.8276 17.0303 71.7832 17.4678 71.6943 17.8779C71.6055 18.2812 71.4688 18.6333 71.2842 18.9341C71.0928 19.2417 70.8467 19.4844 70.5459 19.6621C70.2451 19.8398 69.8862 19.9287 69.4692 19.9287C69.0386 19.9287 68.6694 19.8398 68.3618 19.6621C68.061 19.4844 67.8149 19.2417 67.6235 18.9341C67.4321 18.6333 67.292 18.2812 67.2031 17.8779C67.1143 17.4678 67.0698 17.0303 67.0698 16.5654ZM77.2622 26.2656H80.1128V21.0361C80.2427 21.1797 80.3794 21.3096 80.5229 21.4258C80.6665 21.542 80.8169 21.6479 80.9741 21.7437C81.2407 21.894 81.5278 22.0068 81.8354 22.082C82.1499 22.1641 82.4917 22.2051 82.8608 22.2051C83.5581 22.2051 84.1768 22.0615 84.7168 21.7744C85.2568 21.4873 85.7114 21.0908 86.0806 20.585C86.4429 20.0859 86.7163 19.4912 86.9009 18.8008C87.0923 18.1104 87.188 17.3618 87.188 16.5552V16.3398C87.188 15.499 87.0923 14.7334 86.9009 14.043C86.7163 13.3457 86.4395 12.7476 86.0703 12.2485C85.7012 11.7563 85.2466 11.377 84.7065 11.1104C84.1665 10.8369 83.5444 10.7002 82.8403 10.7002C82.4985 10.7002 82.1772 10.7378 81.8765 10.813C81.5825 10.8813 81.3125 10.9805 81.0664 11.1104C80.8613 11.2197 80.6699 11.3496 80.4922 11.5C80.3145 11.6436 80.1504 11.8076 80 11.9922L79.8975 10.9053H77.2622V26.2656ZM84.3374 16.3398V16.5552C84.3374 17.0132 84.2964 17.4473 84.2144 17.8574C84.1323 18.2607 84.0024 18.6162 83.8247 18.9238C83.647 19.2314 83.4146 19.4741 83.1274 19.6519C82.8472 19.8296 82.5054 19.9185 82.1021 19.9185C81.8491 19.9185 81.6201 19.8945 81.415 19.8467C81.21 19.792 81.0288 19.7168 80.8716 19.6211C80.7075 19.5186 80.5605 19.3955 80.4307 19.252C80.3076 19.1084 80.2017 18.9478 80.1128 18.77V14.1353C80.2085 13.9438 80.3213 13.7764 80.4512 13.6328C80.5879 13.4893 80.7451 13.3696 80.9229 13.2739C81.0801 13.1919 81.2544 13.1304 81.4458 13.0894C81.6372 13.0415 81.8491 13.0176 82.0815 13.0176C82.4849 13.0176 82.8267 13.103 83.1069 13.2739C83.394 13.4448 83.6299 13.6772 83.8145 13.9712C83.9922 14.272 84.1221 14.6274 84.2041 15.0376C84.293 15.4409 84.3374 15.875 84.3374 16.3398ZM95.2168 22.2051C96.29 22.2051 97.2197 21.9966 98.0059 21.5796C98.792 21.1626 99.3662 20.6978 99.7285 20.1851L98.3032 18.647C97.9751 19.0708 97.5479 19.3887 97.0215 19.6006C96.4951 19.8125 95.9517 19.9185 95.3911 19.9185C94.9946 19.9185 94.6289 19.8569 94.2939 19.7339C93.959 19.6108 93.6616 19.4365 93.4019 19.2109C93.1489 18.9922 92.9473 18.7495 92.7969 18.4829C92.6465 18.2095 92.5234 17.8506 92.4277 17.4062V17.3755H99.9541V16.1655C99.9541 15.3521 99.8413 14.6104 99.6157 13.9404C99.3901 13.2637 99.062 12.686 98.6313 12.2075C98.1938 11.729 97.6606 11.3599 97.0317 11.1001C96.4097 10.8335 95.6987 10.7002 94.8989 10.7002C94.1265 10.7002 93.4121 10.8403 92.7559 11.1206C92.0996 11.4009 91.5322 11.7939 91.0537 12.2998C90.5752 12.8057 90.2026 13.4106 89.936 14.1147C89.6694 14.812 89.5361 15.5845 89.5361 16.4321V16.8423C89.5361 17.5874 89.6694 18.2881 89.936 18.9443C90.2095 19.5938 90.5957 20.1577 91.0947 20.6362C91.5938 21.1216 92.1919 21.5044 92.8892 21.7847C93.5864 22.0649 94.3623 22.2051 95.2168 22.2051ZM94.8784 13.0073C95.2407 13.0073 95.5586 13.0654 95.832 13.1816C96.1123 13.291 96.3481 13.4414 96.5396 13.6328C96.731 13.8311 96.8813 14.0635 96.9907 14.3301C97.1001 14.5967 97.1548 14.8804 97.1548 15.1812V15.4067H92.479C92.5474 15.0444 92.6499 14.7163 92.7866 14.4224C92.9233 14.1284 93.0942 13.8755 93.2993 13.6636C93.4976 13.4517 93.73 13.291 93.9966 13.1816C94.2632 13.0654 94.5571 13.0073 94.8784 13.0073ZM110.413 10.7002C109.668 10.7002 108.981 10.8813 108.352 11.2437C107.723 11.5991 107.183 12.0913 106.732 12.7202L106.711 12.4741L106.599 10.9053H103.943V22H106.793V15.335C106.923 15.0205 107.087 14.7471 107.286 14.5146C107.484 14.2822 107.723 14.0908 108.003 13.9404C108.236 13.8105 108.499 13.7148 108.793 13.6533C109.094 13.585 109.429 13.5508 109.798 13.5508C110.153 13.5508 110.526 13.5747 110.916 13.6226C111.312 13.6636 111.698 13.7285 112.074 13.8174L112.495 10.9771C112.269 10.9087 111.972 10.8472 111.603 10.7925C111.24 10.731 110.844 10.7002 110.413 10.7002ZM127.506 22H131.516C132.179 22 132.801 21.918 133.382 21.7539C133.97 21.5898 134.506 21.354 134.992 21.0464C135.409 20.7866 135.792 20.4653 136.14 20.0825C136.489 19.6929 136.793 19.269 137.053 18.811C137.326 18.2983 137.538 17.7344 137.688 17.1191C137.839 16.5039 137.914 15.8511 137.914 15.1606V13.9302C137.914 13.2124 137.832 12.5356 137.668 11.8999C137.511 11.2642 137.285 10.6831 136.991 10.1567C136.738 9.72607 136.441 9.32959 136.099 8.96729C135.764 8.59814 135.381 8.28711 134.951 8.03418C134.458 7.72656 133.912 7.49072 133.31 7.32666C132.708 7.15576 132.062 7.07031 131.372 7.07031H127.506V22ZM130.408 9.4082H131.372C131.721 9.4082 132.042 9.44922 132.336 9.53125C132.637 9.60645 132.91 9.71582 133.156 9.85938C133.478 10.0508 133.758 10.2969 133.997 10.5977C134.243 10.8984 134.441 11.2402 134.592 11.623C134.715 11.9443 134.807 12.2998 134.869 12.6895C134.937 13.0723 134.971 13.479 134.971 13.9097V15.1606C134.971 15.6187 134.937 16.0459 134.869 16.4424C134.807 16.832 134.715 17.1875 134.592 17.5088C134.441 17.8779 134.26 18.2026 134.048 18.4829C133.843 18.7563 133.611 18.9819 133.351 19.1597C133.098 19.3306 132.818 19.4604 132.51 19.5493C132.203 19.6382 131.871 19.6826 131.516 19.6826H130.408V9.4082ZM147.522 18.8828L148.394 22H151.429L146.63 7.07031H144.015L139.124 22H142.159L143.041 18.8828H147.522ZM143.749 16.4321L145.317 10.936L146.845 16.4321H143.749ZM163.21 15.6323V13.4585C163.21 12.7817 163.146 12.1426 163.016 11.541C162.893 10.9395 162.711 10.3857 162.472 9.87988C162.253 9.43555 161.99 9.02881 161.683 8.65967C161.382 8.29053 161.03 7.97607 160.626 7.71631C160.223 7.44287 159.769 7.23438 159.263 7.09082C158.764 6.94043 158.227 6.86523 157.653 6.86523C157.085 6.86523 156.559 6.93701 156.074 7.08057C155.588 7.22412 155.151 7.4292 154.761 7.6958C154.365 7.96924 154.013 8.29736 153.705 8.68018C153.404 9.06299 153.148 9.49023 152.936 9.96191C152.717 10.4609 152.55 11.0044 152.434 11.5923C152.324 12.1802 152.27 12.8022 152.27 13.4585V15.6323C152.27 16.2476 152.317 16.832 152.413 17.3857C152.516 17.9395 152.663 18.4521 152.854 18.9238C153.066 19.4365 153.329 19.8979 153.644 20.3081C153.958 20.7114 154.313 21.0566 154.71 21.3438C155.113 21.6172 155.561 21.8291 156.053 21.9795C156.545 22.1299 157.082 22.2051 157.663 22.2051C158.21 22.2051 158.719 22.1367 159.191 22C159.669 21.8701 160.107 21.6855 160.503 21.4463C160.941 21.1729 161.331 20.8311 161.672 20.4209C162.014 20.0107 162.301 19.5596 162.534 19.0674C162.752 18.5752 162.92 18.042 163.036 17.4678C163.152 16.8867 163.21 16.2749 163.21 15.6323ZM160.288 13.438V15.6323C160.288 16.0015 160.268 16.3569 160.227 16.6987C160.192 17.0405 160.138 17.355 160.062 17.6421C159.967 18.0112 159.837 18.3428 159.673 18.6367C159.516 18.9238 159.321 19.1631 159.088 19.3545C158.904 19.5117 158.692 19.6313 158.453 19.7134C158.213 19.7954 157.95 19.8364 157.663 19.8364C157.362 19.8364 157.092 19.792 156.853 19.7031C156.621 19.6143 156.412 19.4878 156.228 19.3237C156.029 19.1392 155.855 18.8999 155.705 18.606C155.561 18.3052 155.452 17.9736 155.376 17.6113C155.308 17.3242 155.26 17.0132 155.233 16.6782C155.206 16.3433 155.192 15.9946 155.192 15.6323V13.438C155.192 13.0552 155.206 12.6895 155.233 12.3408C155.267 11.9922 155.318 11.6709 155.387 11.377C155.476 10.9941 155.599 10.6592 155.756 10.3721C155.92 10.085 156.118 9.8457 156.351 9.6543C156.521 9.52441 156.713 9.42529 156.925 9.35693C157.144 9.28857 157.386 9.25439 157.653 9.25439C157.933 9.25439 158.186 9.29199 158.412 9.36719C158.644 9.44238 158.853 9.54834 159.037 9.68506C159.27 9.86963 159.471 10.1089 159.642 10.4028C159.813 10.6899 159.95 11.0181 160.052 11.3872C160.134 11.6812 160.192 12.0024 160.227 12.3511C160.268 12.6929 160.288 13.0552 160.288 13.438ZM187.492 15.8169V13.479H181.093V9.41846H188.292V7.07031H178.202V22H181.093V15.8169H187.492ZM194.167 7.07031H190.588V22H193.234V17.5806L193.111 10.8745L194.864 17.0781H196.29L198.248 10.5977L198.125 17.5806V22H200.771V7.07031H197.192L195.582 12.6792L194.167 7.07031Z" fill="white"/>
</svg>
