<svg width="278" height="64" viewBox="0 0 278 64" fill="none" xmlns="http://www.w3.org/2000/svg">
<rect width="64" height="64" rx="32" fill="white"/>
<rect x="38" y="40.9999" width="4" height="13" transform="rotate(90 38 40.9999)" fill="black"/>
<path fill-rule="evenodd" clip-rule="evenodd" d="M6 20V41H13.4118C19.2595 41 24 36.299 24 30.5C24 24.701 19.2595 20 13.4118 20H6ZM10.5378 24.5L10.5378 36.5H13.4118C16.7533 36.5 19.4622 33.8137 19.4622 30.5C19.4622 27.1863 16.7533 24.5 13.4118 24.5H10.5378Z" fill="black"/>
<path fill-rule="evenodd" clip-rule="evenodd" d="M41.001 20V41H48.4127C54.2605 41 59.001 36.299 59.001 30.5C59.001 24.701 54.2605 20 48.4127 20H41.001ZM45.5388 24.5L45.5388 36.5H48.4127C51.7543 36.5 54.4632 33.8137 54.4632 30.5C54.4632 27.1863 51.7543 24.5 48.4127 24.5H45.5388Z" fill="black"/>
<path d="M82.0234 39H78.3086L78.332 36.2578H82.0234C82.9453 36.2578 83.7227 36.0508 84.3555 35.6367C84.9883 35.2148 85.4648 34.6016 85.7852 33.7969C86.1133 32.9922 86.2773 32.0195 86.2773 30.8789V30.0469C86.2773 29.1719 86.1836 28.4023 85.9961 27.7383C85.8164 27.0742 85.5469 26.5156 85.1875 26.0625C84.8281 25.6094 84.3867 25.2695 83.8633 25.043C83.3398 24.8086 82.7383 24.6914 82.0586 24.6914H78.2383V21.9375H82.0586C83.1992 21.9375 84.2422 22.1328 85.1875 22.5234C86.1406 22.9062 86.9648 23.457 87.6602 24.1758C88.3555 24.8945 88.8906 25.7539 89.2656 26.7539C89.6484 27.7461 89.8398 28.8516 89.8398 30.0703V30.8789C89.8398 32.0898 89.6484 33.1953 89.2656 34.1953C88.8906 35.1953 88.3555 36.0547 87.6602 36.7734C86.9727 37.4844 86.1484 38.0352 85.1875 38.4258C84.2344 38.8086 83.1797 39 82.0234 39ZM80.3008 21.9375V39H76.7852V21.9375H80.3008ZM98.0195 39.2344C97.0352 39.2344 96.1523 39.0781 95.3711 38.7656C94.5898 38.4453 93.9258 38.0039 93.3789 37.4414C92.8398 36.8789 92.4258 36.2266 92.1367 35.4844C91.8477 34.7344 91.7031 33.9375 91.7031 33.0938V32.625C91.7031 31.6641 91.8398 30.7852 92.1133 29.9883C92.3867 29.1914 92.7773 28.5 93.2852 27.9141C93.8008 27.3281 94.4258 26.8789 95.1602 26.5664C95.8945 26.2461 96.7227 26.0859 97.6445 26.0859C98.543 26.0859 99.3398 26.2344 100.035 26.5312C100.73 26.8281 101.312 27.25 101.781 27.7969C102.258 28.3438 102.617 29 102.859 29.7656C103.102 30.5234 103.223 31.3672 103.223 32.2969V33.7031H93.1445V31.4531H99.9062V31.1953C99.9062 30.7266 99.8203 30.3086 99.6484 29.9414C99.4844 29.5664 99.2344 29.2695 98.8984 29.0508C98.5625 28.832 98.1328 28.7227 97.6094 28.7227C97.1641 28.7227 96.7812 28.8203 96.4609 29.0156C96.1406 29.2109 95.8789 29.4844 95.6758 29.8359C95.4805 30.1875 95.332 30.6016 95.2305 31.0781C95.1367 31.5469 95.0898 32.0625 95.0898 32.625V33.0938C95.0898 33.6016 95.1602 34.0703 95.3008 34.5C95.4492 34.9297 95.6562 35.3008 95.9219 35.6133C96.1953 35.9258 96.5234 36.168 96.9062 36.3398C97.2969 36.5117 97.7383 36.5977 98.2305 36.5977C98.8398 36.5977 99.4062 36.4805 99.9297 36.2461C100.461 36.0039 100.918 35.6406 101.301 35.1562L102.941 36.9375C102.676 37.3203 102.312 37.6875 101.852 38.0391C101.398 38.3906 100.852 38.6797 100.211 38.9062C99.5703 39.125 98.8398 39.2344 98.0195 39.2344ZM109.293 36.5391L112.105 26.3203H115.633L111.355 39H109.223L109.293 36.5391ZM107.359 26.3203L110.184 36.5508L110.242 39H108.098L103.82 26.3203H107.359ZM122.816 39.2344C121.832 39.2344 120.949 39.0781 120.168 38.7656C119.387 38.4453 118.723 38.0039 118.176 37.4414C117.637 36.8789 117.223 36.2266 116.934 35.4844C116.645 34.7344 116.5 33.9375 116.5 33.0938V32.625C116.5 31.6641 116.637 30.7852 116.91 29.9883C117.184 29.1914 117.574 28.5 118.082 27.9141C118.598 27.3281 119.223 26.8789 119.957 26.5664C120.691 26.2461 121.52 26.0859 122.441 26.0859C123.34 26.0859 124.137 26.2344 124.832 26.5312C125.527 26.8281 126.109 27.25 126.578 27.7969C127.055 28.3438 127.414 29 127.656 29.7656C127.898 30.5234 128.02 31.3672 128.02 32.2969V33.7031H117.941V31.4531H124.703V31.1953C124.703 30.7266 124.617 30.3086 124.445 29.9414C124.281 29.5664 124.031 29.2695 123.695 29.0508C123.359 28.832 122.93 28.7227 122.406 28.7227C121.961 28.7227 121.578 28.8203 121.258 29.0156C120.938 29.2109 120.676 29.4844 120.473 29.8359C120.277 30.1875 120.129 30.6016 120.027 31.0781C119.934 31.5469 119.887 32.0625 119.887 32.625V33.0938C119.887 33.6016 119.957 34.0703 120.098 34.5C120.246 34.9297 120.453 35.3008 120.719 35.6133C120.992 35.9258 121.32 36.168 121.703 36.3398C122.094 36.5117 122.535 36.5977 123.027 36.5977C123.637 36.5977 124.203 36.4805 124.727 36.2461C125.258 36.0039 125.715 35.6406 126.098 35.1562L127.738 36.9375C127.473 37.3203 127.109 37.6875 126.648 38.0391C126.195 38.3906 125.648 38.6797 125.008 38.9062C124.367 39.125 123.637 39.2344 122.816 39.2344ZM133.504 21V39H130.117V21H133.504ZM135.754 32.7891V32.543C135.754 31.6133 135.887 30.7578 136.152 29.9766C136.418 29.1875 136.805 28.5039 137.312 27.9258C137.82 27.3477 138.445 26.8984 139.188 26.5781C139.93 26.25 140.781 26.0859 141.742 26.0859C142.703 26.0859 143.559 26.25 144.309 26.5781C145.059 26.8984 145.688 27.3477 146.195 27.9258C146.711 28.5039 147.102 29.1875 147.367 29.9766C147.633 30.7578 147.766 31.6133 147.766 32.543V32.7891C147.766 33.7109 147.633 34.5664 147.367 35.3555C147.102 36.1367 146.711 36.8203 146.195 37.4062C145.688 37.9844 145.062 38.4336 144.32 38.7539C143.578 39.0742 142.727 39.2344 141.766 39.2344C140.805 39.2344 139.949 39.0742 139.199 38.7539C138.457 38.4336 137.828 37.9844 137.312 37.4062C136.805 36.8203 136.418 36.1367 136.152 35.3555C135.887 34.5664 135.754 33.7109 135.754 32.7891ZM139.129 32.543V32.7891C139.129 33.3203 139.176 33.8164 139.27 34.2773C139.363 34.7383 139.512 35.1445 139.715 35.4961C139.926 35.8398 140.199 36.1094 140.535 36.3047C140.871 36.5 141.281 36.5977 141.766 36.5977C142.234 36.5977 142.637 36.5 142.973 36.3047C143.309 36.1094 143.578 35.8398 143.781 35.4961C143.984 35.1445 144.133 34.7383 144.227 34.2773C144.328 33.8164 144.379 33.3203 144.379 32.7891V32.543C144.379 32.0273 144.328 31.543 144.227 31.0898C144.133 30.6289 143.98 30.2227 143.77 29.8711C143.566 29.5117 143.297 29.2305 142.961 29.0273C142.625 28.8242 142.219 28.7227 141.742 28.7227C141.266 28.7227 140.859 28.8242 140.523 29.0273C140.195 29.2305 139.926 29.5117 139.715 29.8711C139.512 30.2227 139.363 30.6289 139.27 31.0898C139.176 31.543 139.129 32.0273 139.129 32.543ZM153.215 28.7578V43.875H149.84V26.3203H152.969L153.215 28.7578ZM161.242 32.5195V32.7656C161.242 33.6875 161.133 34.543 160.914 35.332C160.703 36.1211 160.391 36.8086 159.977 37.3945C159.562 37.9727 159.047 38.4258 158.43 38.7539C157.82 39.0742 157.117 39.2344 156.32 39.2344C155.547 39.2344 154.875 39.0781 154.305 38.7656C153.734 38.4531 153.254 38.0156 152.863 37.4531C152.48 36.8828 152.172 36.2227 151.938 35.4727C151.703 34.7227 151.523 33.918 151.398 33.0586V32.4141C151.523 31.4922 151.703 30.6484 151.938 29.8828C152.172 29.1094 152.48 28.4414 152.863 27.8789C153.254 27.3086 153.73 26.8672 154.293 26.5547C154.863 26.2422 155.531 26.0859 156.297 26.0859C157.102 26.0859 157.809 26.2383 158.418 26.543C159.035 26.8477 159.551 27.2852 159.965 27.8555C160.387 28.4258 160.703 29.1055 160.914 29.8945C161.133 30.6836 161.242 31.5586 161.242 32.5195ZM157.855 32.7656V32.5195C157.855 31.9805 157.809 31.4844 157.715 31.0312C157.629 30.5703 157.488 30.168 157.293 29.8242C157.105 29.4805 156.855 29.2148 156.543 29.0273C156.238 28.832 155.867 28.7344 155.43 28.7344C154.969 28.7344 154.574 28.8086 154.246 28.957C153.926 29.1055 153.664 29.3203 153.461 29.6016C153.258 29.8828 153.105 30.2188 153.004 30.6094C152.902 31 152.84 31.4414 152.816 31.9336V33.5625C152.855 34.1406 152.965 34.6602 153.145 35.1211C153.324 35.5742 153.602 35.9336 153.977 36.1992C154.352 36.4648 154.844 36.5977 155.453 36.5977C155.898 36.5977 156.273 36.5 156.578 36.3047C156.883 36.1016 157.129 35.8242 157.316 35.4727C157.512 35.1211 157.648 34.7148 157.727 34.2539C157.812 33.793 157.855 33.2969 157.855 32.7656ZM169.176 39.2344C168.191 39.2344 167.309 39.0781 166.527 38.7656C165.746 38.4453 165.082 38.0039 164.535 37.4414C163.996 36.8789 163.582 36.2266 163.293 35.4844C163.004 34.7344 162.859 33.9375 162.859 33.0938V32.625C162.859 31.6641 162.996 30.7852 163.27 29.9883C163.543 29.1914 163.934 28.5 164.441 27.9141C164.957 27.3281 165.582 26.8789 166.316 26.5664C167.051 26.2461 167.879 26.0859 168.801 26.0859C169.699 26.0859 170.496 26.2344 171.191 26.5312C171.887 26.8281 172.469 27.25 172.938 27.7969C173.414 28.3438 173.773 29 174.016 29.7656C174.258 30.5234 174.379 31.3672 174.379 32.2969V33.7031H164.301V31.4531H171.062V31.1953C171.062 30.7266 170.977 30.3086 170.805 29.9414C170.641 29.5664 170.391 29.2695 170.055 29.0508C169.719 28.832 169.289 28.7227 168.766 28.7227C168.32 28.7227 167.938 28.8203 167.617 29.0156C167.297 29.2109 167.035 29.4844 166.832 29.8359C166.637 30.1875 166.488 30.6016 166.387 31.0781C166.293 31.5469 166.246 32.0625 166.246 32.625V33.0938C166.246 33.6016 166.316 34.0703 166.457 34.5C166.605 34.9297 166.812 35.3008 167.078 35.6133C167.352 35.9258 167.68 36.168 168.062 36.3398C168.453 36.5117 168.895 36.5977 169.387 36.5977C169.996 36.5977 170.562 36.4805 171.086 36.2461C171.617 36.0039 172.074 35.6406 172.457 35.1562L174.098 36.9375C173.832 37.3203 173.469 37.6875 173.008 38.0391C172.555 38.3906 172.008 38.6797 171.367 38.9062C170.727 39.125 169.996 39.2344 169.176 39.2344ZM179.676 29.0859V39H176.301V26.3203H179.477L179.676 29.0859ZM183.496 26.2383L183.438 29.3672C183.273 29.3438 183.074 29.3242 182.84 29.3086C182.613 29.2852 182.406 29.2734 182.219 29.2734C181.742 29.2734 181.328 29.3359 180.977 29.4609C180.633 29.5781 180.344 29.7539 180.109 29.9883C179.883 30.2227 179.711 30.5078 179.594 30.8438C179.484 31.1797 179.422 31.5625 179.406 31.9922L178.727 31.7812C178.727 30.9609 178.809 30.207 178.973 29.5195C179.137 28.8242 179.375 28.2188 179.688 27.7031C180.008 27.1875 180.398 26.7891 180.859 26.5078C181.32 26.2266 181.848 26.0859 182.441 26.0859C182.629 26.0859 182.82 26.1016 183.016 26.1328C183.211 26.1562 183.371 26.1914 183.496 26.2383ZM196.516 39H192.801L192.824 36.2578H196.516C197.438 36.2578 198.215 36.0508 198.848 35.6367C199.48 35.2148 199.957 34.6016 200.277 33.7969C200.605 32.9922 200.77 32.0195 200.77 30.8789V30.0469C200.77 29.1719 200.676 28.4023 200.488 27.7383C200.309 27.0742 200.039 26.5156 199.68 26.0625C199.32 25.6094 198.879 25.2695 198.355 25.043C197.832 24.8086 197.23 24.6914 196.551 24.6914H192.73V21.9375H196.551C197.691 21.9375 198.734 22.1328 199.68 22.5234C200.633 22.9062 201.457 23.457 202.152 24.1758C202.848 24.8945 203.383 25.7539 203.758 26.7539C204.141 27.7461 204.332 28.8516 204.332 30.0703V30.8789C204.332 32.0898 204.141 33.1953 203.758 34.1953C203.383 35.1953 202.848 36.0547 202.152 36.7734C201.465 37.4844 200.641 38.0352 199.68 38.4258C198.727 38.8086 197.672 39 196.516 39ZM194.793 21.9375V39H191.277V21.9375H194.793ZM213.566 24.8555L208.926 39H205.188L211.527 21.9375H213.906L213.566 24.8555ZM217.422 39L212.77 24.8555L212.395 21.9375H214.797L221.172 39H217.422ZM217.211 32.6484V35.4023H208.199V32.6484H217.211ZM236.559 30.0703V30.8789C236.559 32.1758 236.383 33.3398 236.031 34.3711C235.68 35.4023 235.184 36.2812 234.543 37.0078C233.902 37.7266 233.137 38.2773 232.246 38.6602C231.363 39.043 230.383 39.2344 229.305 39.2344C228.234 39.2344 227.254 39.043 226.363 38.6602C225.48 38.2773 224.715 37.7266 224.066 37.0078C223.418 36.2812 222.914 35.4023 222.555 34.3711C222.203 33.3398 222.027 32.1758 222.027 30.8789V30.0703C222.027 28.7656 222.203 27.6016 222.555 26.5781C222.906 25.5469 223.402 24.668 224.043 23.9414C224.691 23.2148 225.457 22.6602 226.34 22.2773C227.23 21.8945 228.211 21.7031 229.281 21.7031C230.359 21.7031 231.34 21.8945 232.223 22.2773C233.113 22.6602 233.879 23.2148 234.52 23.9414C235.168 24.668 235.668 25.5469 236.02 26.5781C236.379 27.6016 236.559 28.7656 236.559 30.0703ZM233.008 30.8789V30.0469C233.008 29.1406 232.926 28.3438 232.762 27.6562C232.598 26.9688 232.355 26.3906 232.035 25.9219C231.715 25.4531 231.324 25.1016 230.863 24.8672C230.402 24.625 229.875 24.5039 229.281 24.5039C228.688 24.5039 228.16 24.625 227.699 24.8672C227.246 25.1016 226.859 25.4531 226.539 25.9219C226.227 26.3906 225.988 26.9688 225.824 27.6562C225.66 28.3438 225.578 29.1406 225.578 30.0469V30.8789C225.578 31.7773 225.66 32.5742 225.824 33.2695C225.988 33.957 226.23 34.5391 226.551 35.0156C226.871 35.4844 227.262 35.8398 227.723 36.082C228.184 36.3242 228.711 36.4453 229.305 36.4453C229.898 36.4453 230.426 36.3242 230.887 36.082C231.348 35.8398 231.734 35.4844 232.047 35.0156C232.359 34.5391 232.598 33.957 232.762 33.2695C232.926 32.5742 233.008 31.7773 233.008 30.8789ZM248.582 21.9375V39H245.066V21.9375H248.582ZM255.379 29.2266V31.9688H247.621V29.2266H255.379ZM256.199 21.9375V24.6914H247.621V21.9375H256.199ZM259.844 21.9375H262.82L267.203 34.4648L271.586 21.9375H274.562L268.398 39H266.008L259.844 21.9375ZM258.238 21.9375H261.203L261.742 34.1484V39H258.238V21.9375ZM273.203 21.9375H276.18V39H272.664V34.1484L273.203 21.9375Z" fill="white"/>
</svg>
